<svg xmlns="http://www.w3.org/2000/svg" viewBox="0 0 1080 1080"><defs><style>.cls-1{fill:#bc9115;}.cls-2{font-size:69.36px;font-family:Montserrat-ExtraLight, Montserrat;font-weight:200;}.cls-2,.cls-5{fill:#fff;}.cls-3{letter-spacing:-0.02em;}.cls-4{letter-spacing:-0.01em;}.cls-5{font-size:61.73px;font-family:Montserrat-Medium, Montserrat;font-weight:500;letter-spacing:-0.01em;}.cls-6{letter-spacing:0em;}</style></defs><g id="Marcas_de_recorte" data-name="Marcas de recorte"><rect width="1080" height="1080" rx="540"/><path class="cls-1" d="M626.8,196.3l149.6,80.8V550.7L626.8,633.4V196.3M557.1,84.1V747l105.5-58.4,149.6-82.7,33.9-18.7v-347l-34.5-18.6L662,140.8,557.1,84.1Z"/><polygon class="cls-1" points="440.1 512.9 440.1 633.4 299.5 550.7 299.5 277.1 440.1 196.3 440.1 319.9 505.7 319.9 505.7 196.3 505.7 84.1 407 140.8 266.4 221.6 233.9 240.2 233.9 277.1 233.9 550.7 233.9 587.2 265.8 605.9 406.5 688.6 505.7 747 505.7 633.4 505.7 512.9 440.1 512.9"/><text class="cls-2" transform="translate(175.8 864.3)"><tspan class="cls-3">C</tspan><tspan x="48.1" y="0">A</tspan><tspan class="cls-4" x="96.4" y="0">R</tspan><tspan x="145.5" y="0">TERAS DE </tspan><tspan class="cls-4" x="509" y="0">D</tspan><tspan x="565.6" y="0">AMA</tspan></text><text class="cls-5" transform="translate(359.3 994.9)">b<tspan class="cls-6" x="41.2" y="0">y Medellín</tspan></text></g></svg>