<svg xmlns="http://www.w3.org/2000/svg" viewBox="0 0 1080 1080"><defs><style>.cls-1{fill:#bc9115;}.cls-2{font-size:69.36px;font-family:Montserrat-ExtraLight, Montserrat;font-weight:200;}.cls-2,.cls-5{fill:#fff;}.cls-3{letter-spacing:-0.02em;}.cls-4{letter-spacing:-0.01em;}.cls-5{font-size:61.73px;font-family:Montserrat-Medium, Montserrat;font-weight:500;letter-spacing:-0.01em;}.cls-6{letter-spacing:0em;}</style></defs><g id="Marcas_de_recorte" data-name="Marcas de recorte"><rect width="1080" height="1080"/><path class="cls-1" d="M626.83,196.31l149.55,80.82V550.68L626.83,633.41V196.31M557.15,84.08V747l105.49-58.36L812.19,605.9l33.88-18.74V240.22l-34.5-18.65L662,140.76,557.15,84.08Z"/><polygon class="cls-1" points="440.13 512.92 440.13 633.41 299.48 550.68 299.48 277.13 440.13 196.31 440.13 319.94 505.67 319.94 505.67 196.31 505.67 84.08 407.03 140.75 266.38 221.57 233.93 240.22 233.93 277.13 233.93 550.68 233.93 587.16 265.8 605.9 406.45 688.63 505.67 746.99 505.67 633.41 505.67 512.92 440.13 512.92"/><text class="cls-2" transform="translate(175.78 864.33)"><tspan class="cls-3">C</tspan><tspan x="48.13" y="0">A</tspan><tspan class="cls-4" x="96.4" y="0">R</tspan><tspan x="145.51" y="0">TERAS DE </tspan><tspan class="cls-4" x="508.99" y="0">D</tspan><tspan x="565.59" y="0">AMA</tspan></text><text class="cls-5" transform="translate(359.28 994.94)">b<tspan class="cls-6" x="41.17" y="0">y Medellín</tspan></text></g></svg>